<?xml version="1.0" standalone="no"?>
<!DOCTYPE svg PUBLIC "-//W3C//DTD SVG 20010904//EN"
 "http://www.w3.org/TR/2001/REC-SVG-20010904/DTD/svg10.dtd">
<svg version="1.0" xmlns="http://www.w3.org/2000/svg"
 width="860.000000pt" height="1500.000000pt" viewBox="0 0 860.000000 1500.000000"
 preserveAspectRatio="xMidYMid meet">

<g transform="translate(0.000000,1500.000000) scale(0.100000,-0.100000)"
fill="#000000" stroke="none">
<path d="M3840 14120 c-47 -5 -168 -16 -270 -26 -111 -10 -191 -22 -200 -30
-8 -7 -53 -15 -100 -19 -47 -3 -114 -15 -150 -25 -259 -76 -470 -130 -509
-131 l-46 -1 40 -18 c21 -10 66 -22 99 -26 33 -3 70 -12 81 -20 11 -7 61 -18
110 -24 50 -7 106 -18 125 -25 37 -14 95 -30 145 -40 16 -4 82 -29 145 -57 63
-28 138 -57 165 -65 58 -18 148 -62 223 -109 29 -19 55 -34 58 -34 3 0 37 -22
77 -48 40 -27 95 -61 122 -77 49 -28 221 -150 260 -185 11 -10 61 -57 110
-103 50 -47 100 -95 113 -106 13 -11 24 -23 25 -28 1 -4 10 -7 20 -6 9 2 17
-1 17 -6 0 -5 12 -23 26 -40 14 -17 22 -31 18 -31 -4 0 10 -16 31 -36 30 -28
35 -38 24 -45 -10 -6 -10 -9 -1 -9 6 0 12 -9 12 -20 0 -25 17 -27 22 -2 3 13
8 8 21 -17 9 -19 17 -38 17 -44 0 -5 7 -25 17 -44 11 -23 21 -33 33 -30 13 3
16 -2 14 -29 -3 -27 0 -32 14 -27 15 6 15 5 3 -10 -14 -18 -37 -24 -26 -8 3 6
-3 14 -12 20 -16 9 -16 12 -3 22 13 9 13 10 -1 6 -10 -3 -25 7 -40 25 -13 17
-30 36 -37 44 -7 8 -10 14 -5 15 4 0 -2 4 -15 10 -13 5 -20 13 -17 19 3 5 -1
10 -9 10 -23 0 -20 -13 9 -40 14 -13 24 -25 22 -26 -2 -2 -58 50 -126 116 -68
66 -119 120 -115 120 4 0 20 -12 35 -26 21 -20 27 -22 32 -10 4 11 1 13 -10 9
-11 -4 -14 -2 -9 5 4 7 3 12 -2 12 -12 0 -95 79 -109 104 -5 9 -18 18 -28 20
-10 1 -23 9 -29 17 -6 8 -18 15 -26 17 -15 2 19 -31 49 -48 9 -5 13 -12 9 -15
-4 -4 -22 4 -40 19 -193 155 -512 337 -713 408 -346 122 -495 162 -640 175
-41 3 -75 9 -75 14 0 13 -50 19 -165 20 l-110 1 -205 -67 c-314 -103 -395
-140 -590 -273 -300 -204 -401 -314 -621 -672 -92 -150 -209 -418 -269 -620
-39 -131 -68 -309 -77 -463 -4 -79 -10 -121 -20 -128 -18 -15 -18 -145 0 -163
13 -14 9 -99 -8 -156 -6 -19 0 -14 25 18 18 24 34 41 37 38 12 -12 89 90 108
144 6 18 67 148 75 160 21 32 40 83 34 91 -3 5 -1 9 4 9 5 0 17 18 28 39 10
22 22 37 26 35 5 -3 8 3 8 13 0 10 7 28 15 39 8 12 11 25 7 29 -4 5 -1 5 6 1
7 -5 15 2 21 17 6 14 16 27 23 30 8 4 7 6 -4 6 -10 1 -18 -3 -18 -9 0 -5 -5
-10 -10 -10 -20 0 8 35 127 157 121 124 275 255 340 289 20 11 59 34 86 52 27
18 60 35 73 38 13 3 24 9 24 13 0 8 81 51 95 51 4 0 21 6 38 14 34 15 132 53
207 80 75 27 162 46 174 39 6 -4 1 -10 -14 -14 -23 -7 -24 -7 -3 -8 12 -1 27
7 32 18 12 22 61 34 79 19 8 -7 12 -7 12 2 0 8 13 10 43 6 23 -3 34 -3 24 0
-24 7 -11 24 18 24 18 0 23 -4 19 -15 -4 -8 -2 -15 4 -15 6 0 12 5 14 11 4 13
94 29 105 19 4 -4 20 -10 36 -14 20 -5 29 -2 34 10 5 14 8 14 23 -5 17 -23 57
-29 218 -30 34 -1 62 -5 62 -11 0 -5 -30 -7 -75 -5 -42 3 -77 0 -80 -5 -4 -6
-23 -7 -44 -4 -25 4 -50 1 -72 -9 -19 -8 -41 -18 -49 -21 -8 -3 -1 -4 15 0 64
12 215 15 215 5 0 -7 -28 -10 -80 -7 -44 2 -82 1 -85 -4 -2 -4 -37 -11 -77
-15 -106 -11 -112 -12 -128 -18 -8 -3 -49 -13 -90 -23 -181 -41 -471 -168
-630 -276 -215 -145 -384 -309 -507 -493 -69 -103 -221 -407 -245 -491 -22
-75 -23 -93 -21 -374 l2 -296 31 -104 c58 -198 130 -546 155 -756 8 -71 22
-172 30 -224 8 -52 14 -117 14 -145 1 -27 10 -122 21 -210 11 -88 23 -240 27
-337 6 -166 5 -178 -11 -178 -39 0 -88 35 -157 112 -132 146 -241 220 -303
204 -34 -8 -73 -77 -92 -162 -21 -98 -30 -374 -15 -471 40 -255 112 -563 163
-703 74 -205 218 -485 253 -495 11 -3 41 -16 67 -27 l48 -21 0 -241 c1 -133 3
-369 6 -526 l6 -285 76 -120 c74 -117 150 -258 185 -343 22 -54 22 -90 0 -94
-16 -3 -16 -4 0 -20 9 -9 17 -20 17 -24 0 -8 -95 88 -184 186 l-59 65 7 -54
c7 -51 46 -183 143 -486 50 -155 45 -115 113 -805 57 -576 60 -603 76 -627 8
-12 14 -39 14 -60 0 -61 37 -178 95 -300 73 -153 114 -220 209 -337 129 -159
170 -199 358 -350 153 -124 240 -182 428 -288 19 -11 43 -27 53 -36 9 -8 18
-13 20 -11 18 27 46 104 51 139 12 84 19 82 93 -31 37 -58 81 -133 97 -166
l30 -60 95 -33 c53 -18 123 -46 157 -62 34 -15 67 -28 75 -28 8 0 19 -4 25
-10 5 -5 27 -12 48 -16 38 -6 83 -17 266 -68 52 -15 131 -29 175 -33 44 -3 84
-9 90 -14 5 -5 32 -9 61 -9 33 0 54 -5 56 -12 3 -9 43 -14 142 -16 114 -3 141
-1 155 12 9 9 30 15 47 14 16 0 54 2 84 5 30 4 80 9 110 12 30 4 73 12 95 20
22 7 63 16 91 18 29 3 101 20 160 38 60 17 132 37 159 44 28 7 88 28 135 45
47 18 108 39 137 48 44 13 52 19 58 46 5 21 9 25 12 14 4 -14 10 -11 39 17 19
19 34 39 34 45 0 5 7 10 16 10 8 0 13 4 9 10 -3 5 6 27 20 49 14 23 25 45 25
51 0 5 4 10 10 10 5 0 7 7 4 15 -4 8 -2 15 4 15 6 0 13 14 17 30 4 19 11 28
18 23 7 -3 9 -3 5 1 -4 5 4 26 18 48 14 22 21 37 15 34 -36 -23 22 62 64 94
28 21 37 19 47 -12 7 -21 3 -41 -17 -90 -31 -72 -84 -255 -77 -263 3 -2 17 3
31 13 14 10 49 28 76 41 215 102 483 298 643 469 58 61 130 144 160 182 31 38
58 68 60 65 3 -3 -3 -14 -13 -25 -15 -17 -16 -23 -5 -33 10 -9 11 -9 6 0 -4 7
6 27 23 45 67 74 241 367 241 406 0 5 8 26 19 48 42 89 85 308 116 599 28 265
59 479 85 590 10 44 21 103 24 130 12 94 106 467 139 555 25 65 30 176 8 189
-7 5 -10 14 -7 20 4 7 0 11 -12 11 -10 0 -24 -10 -31 -22 l-11 -23 6 23 c4 16
1 22 -11 22 -14 0 -16 6 -10 37 4 21 10 40 14 43 4 3 16 30 26 60 11 30 27 67
37 82 10 14 18 32 19 40 0 7 9 27 20 43 10 17 21 37 25 45 3 8 10 22 15 30 36
59 46 134 59 453 13 318 33 471 65 490 8 4 16 22 20 40 15 74 59 170 98 214
11 12 16 27 12 34 -5 7 -4 10 2 6 15 -9 112 194 178 373 51 138 145 521 171
694 21 144 16 335 -11 389 -10 20 -22 37 -25 37 -3 0 -13 16 -20 36 -14 35
-15 35 -21 13 -6 -21 -7 -21 -8 -4 -1 12 -13 36 -28 54 -21 24 -39 34 -70 38
-68 9 -117 -16 -256 -129 -94 -78 -92 -78 -94 5 -1 40 7 155 18 257 10 102 22
214 25 250 3 36 7 68 10 71 2 3 6 24 8 45 31 239 62 430 101 629 33 167 32
163 48 230 9 33 23 94 31 135 9 41 28 127 42 190 14 63 32 147 40 185 7 39 18
90 23 115 32 145 61 438 61 618 0 229 -16 343 -75 552 -21 73 -78 190 -94 190
-3 0 -11 10 -16 23 -6 12 -16 21 -23 20 -6 -2 -15 9 -18 22 -4 14 -11 24 -17
22 -5 -1 -35 -44 -66 -95 -53 -86 -180 -256 -245 -326 -26 -28 -28 -29 -23 -8
4 19 2 22 -14 17 -20 -7 -27 9 -8 20 6 4 8 13 5 21 -3 8 -2 14 3 14 9 0 41 87
60 165 7 28 15 98 18 157 5 86 3 116 -12 160 -10 29 -19 62 -21 73 -7 51 -92
249 -171 400 -63 120 -85 161 -94 169 -5 6 -9 18 -9 28 0 11 -7 18 -20 18 -13
0 -27 13 -39 38 -41 79 -203 276 -321 390 -103 101 -188 169 -259 209 -146 82
-234 139 -261 169 -43 50 -67 47 -31 -4 187 -270 246 -385 351 -687 78 -225
89 -272 95 -410 3 -77 1 -136 -4 -145 -6 -8 -12 -12 -14 -10 -7 10 -37 113
-37 131 0 10 -16 52 -35 95 -19 42 -35 83 -35 90 0 8 -4 14 -9 14 -5 0 -7 10
-3 22 3 13 1 19 -5 15 -6 -4 -14 5 -18 21 -11 44 -36 92 -46 86 -5 -3 -6 1 -3
9 8 21 -73 167 -93 167 -16 0 -55 70 -55 99 0 15 -3 19 -8 11 -5 -9 -21 6 -46
46 -22 32 -44 64 -51 69 -6 6 -32 42 -57 81 -122 192 -577 552 -732 579 -21 4
-46 13 -54 20 -8 7 -44 18 -80 23 -36 6 -114 20 -175 32 -60 11 -146 27 -190
35 -44 8 -90 17 -102 21 -13 3 -23 2 -23 -3 0 -12 53 -63 66 -63 6 0 19 -9 29
-20 11 -12 35 -28 54 -38 58 -27 320 -297 433 -447 43 -58 138 -211 200 -323
16 -30 40 -88 54 -130 26 -77 57 -161 73 -197 5 -11 16 -40 24 -65 35 -106 47
-155 47 -190 0 -22 5 -51 10 -66 6 -15 8 -29 5 -32 -11 -12 -44 33 -65 89 -12
32 -26 59 -30 59 -5 0 -6 9 -3 20 3 11 0 20 -6 20 -6 0 -11 9 -11 21 0 13 -4
18 -12 13 -7 -4 -8 -3 -4 5 10 16 -2 63 -14 56 -6 -3 -10 3 -10 14 0 20 -39
111 -51 121 -4 3 -10 16 -14 28 -4 13 -20 43 -36 67 -16 24 -29 50 -29 60 0 9
-4 14 -8 11 -5 -3 -14 11 -21 30 -12 32 -31 47 -31 23 0 -5 -5 -7 -11 -4 -6 4
-8 14 -5 22 7 17 -25 83 -49 103 -9 7 -2 -10 16 -38 18 -29 30 -55 27 -57 -7
-8 -73 96 -73 115 -1 8 -6 14 -12 13 -6 -1 -32 21 -58 50 -184 202 -341 346
-394 362 -13 4 -33 18 -45 32 -20 23 -75 58 -221 142 -59 33 -227 103 -365
152 -19 6 -51 17 -70 24 -85 30 -112 36 -186 40 -44 2 -117 0 -164 -5z m1628
-995 c-3 -3 -9 2 -12 12 -6 14 -5 15 5 6 7 -7 10 -15 7 -18z m916 -61 c3 -8 2
-12 -4 -9 -6 3 -10 10 -10 16 0 14 7 11 14 -7z m-2074 -144 c0 -5 -2 -10 -4
-10 -3 0 -8 5 -11 10 -3 6 -1 10 4 10 6 0 11 -4 11 -10z m364 -366 c5 -14 4
-15 -9 -4 -17 14 -19 20 -6 20 5 0 12 -7 15 -16z m34 -45 c19 -30 11 -32 -11
-3 -10 13 -14 24 -10 24 5 0 14 -9 21 -21z m84 1 c1 5 8 2 15 -9 10 -17 9 -18
-10 -14 -41 9 -48 13 -42 23 5 8 11 8 20 0 9 -7 14 -8 17 0z m995 -12 c-3 -8
-6 -5 -6 6 -1 11 2 17 5 13 3 -3 4 -12 1 -19z m-1007 -29 c0 -6 7 -9 15 -5 8
3 15 1 15 -4 0 -11 -11 -13 -34 -4 -18 7 -22 24 -6 24 6 0 10 -5 10 -11z m51
-32 c-5 -5 -17 -7 -27 -4 -16 4 -15 5 3 6 17 1 21 6 17 19 -5 14 -4 15 5 2 5
-8 6 -19 2 -23z m-1968 16 c-13 -2 -33 -2 -45 0 -13 2 -3 4 22 4 25 0 35 -2
23 -4z m256 -39 c2 -2 -14 -4 -37 -4 -23 0 -42 5 -42 10 0 10 67 4 79 -6z
m1655 0 c3 -8 2 -12 -4 -9 -6 3 -10 10 -10 16 0 14 7 11 14 -7z m-1751 -41
c-13 -2 -33 -2 -45 0 -13 2 -3 4 22 4 25 0 35 -2 23 -4z m227 -23 c20 -6 21
-8 5 -8 -11 0 -29 3 -40 8 -25 11 1 11 35 0z m65 0 c3 -5 2 -10 -4 -10 -5 0
-13 5 -16 10 -3 6 -2 10 4 10 5 0 13 -4 16 -10z m-2205 -690 c-6 -11 -13 -20
-16 -20 -2 0 0 9 6 20 6 11 13 20 16 20 2 0 0 -9 -6 -20z m6280 -14 c0 -3 -4
-8 -10 -11 -5 -3 -10 -1 -10 4 0 6 5 11 10 11 6 0 10 -2 10 -4z m-4857 -441
c312 -94 344 -104 432 -128 50 -14 149 -41 220 -61 72 -20 179 -43 238 -50 59
-8 113 -19 120 -24 14 -12 169 -32 243 -32 32 0 56 -5 63 -14 12 -15 16 -15
386 -37 261 -16 339 -17 420 -8 39 4 106 10 150 13 494 38 520 41 540 56 6 5
59 13 118 18 60 6 115 16 123 23 9 7 37 14 62 16 26 2 56 6 67 9 11 3 47 12
80 19 195 44 578 146 626 168 45 20 68 24 125 21 162 -8 220 -24 288 -84 75
-66 198 -277 244 -420 56 -170 83 -448 81 -823 -1 -219 2 -289 16 -357 9 -47
23 -134 30 -195 8 -60 19 -121 26 -135 6 -14 17 -95 25 -180 16 -181 17 -213
6 -206 -4 2 -66 6 -137 7 -181 3 -388 25 -465 49 -36 12 -103 36 -150 55 -163
64 -197 73 -316 85 -143 14 -332 -2 -579 -50 -27 -5 -97 -19 -155 -30 -58 -11
-136 -27 -175 -35 -38 -9 -106 -22 -150 -30 -44 -9 -132 -25 -195 -38 l-115
-22 -3 -43 c-3 -36 -7 -43 -30 -48 -15 -3 -47 -13 -72 -22 -61 -20 -342 -31
-470 -18 -87 9 -182 35 -177 49 2 6 -15 29 -37 53 -40 42 -43 43 -240 93 -109
28 -205 55 -215 60 -9 5 -56 12 -104 16 -48 4 -100 13 -115 20 -15 8 -65 17
-112 21 -124 10 -128 10 -142 21 -7 6 -92 21 -188 33 -200 25 -345 22 -368 -8
-11 -14 -14 -15 -22 -3 -7 12 -12 12 -23 3 -8 -7 -25 -11 -38 -11 -31 2 -126
-26 -203 -60 -102 -46 -165 -59 -301 -65 -71 -3 -165 -9 -208 -12 -45 -4 -77
-3 -75 2 1 5 -4 20 -11 33 -10 19 -12 52 -8 135 4 61 8 122 10 136 11 75 33
200 67 380 11 58 24 182 30 275 12 181 29 414 35 455 1 14 6 54 10 90 9 73 10
79 18 100 3 8 20 74 37 145 57 240 118 422 154 463 21 23 10 31 -14 10 -22
-20 9 20 46 58 31 33 112 80 161 93 79 22 160 13 316 -34z m2257 -2555 c0 -5
-4 -10 -10 -10 -5 0 -10 5 -10 10 0 6 5 10 10 10 6 0 10 -4 10 -10z m-80 -14
c0 -3 -4 -8 -10 -11 -5 -3 -10 -1 -10 4 0 6 5 11 10 11 6 0 10 -2 10 -4z m309
-70 c-15 -13 -49 -25 -49 -17 0 5 8 12 18 14 24 6 36 8 31 3z m-104 -16 c-3
-5 -11 -10 -16 -10 -6 0 -7 5 -4 10 3 6 11 10 16 10 6 0 7 -4 4 -10z m35 -15
c-18 -21 -79 -36 -101 -25 -23 13 -32 13 -23 -1 4 -7 0 -9 -13 -5 -14 4 -20 2
-20 -9 0 -15 10 -14 56 3 9 3 12 1 7 -6 -4 -7 -13 -12 -19 -12 -7 0 -31 -9
-52 -20 -25 -13 -50 -18 -65 -15 -16 4 -20 3 -12 -3 17 -12 -6 -22 -48 -22
-16 0 -32 -5 -36 -11 -3 -6 -19 -9 -35 -5 -18 3 -29 1 -29 -5 0 -7 -12 -9 -32
-5 -18 3 -40 6 -48 5 -72 -6 -209 0 -225 9 -18 10 -17 11 10 12 17 0 37 5 45
10 11 8 9 9 -11 5 -16 -4 -30 -1 -38 9 -7 8 -19 12 -28 9 -11 -4 -14 -2 -11 8
5 15 65 31 86 24 23 -8 385 15 397 25 6 5 25 10 41 10 116 3 173 9 190 18 26
15 29 15 14 -3z m-793 -51 c-3 -3 -12 -4 -19 -1 -8 3 -5 6 6 6 11 1 17 -2 13
-5z m-1605 -96 c-6 -6 -15 -8 -19 -4 -4 4 -1 11 7 16 19 12 27 3 12 -12z
m-1397 -17 c87 -33 99 -38 143 -70 l42 -31 0 -165 c0 -151 -24 -847 -34 -990
-3 -33 -5 -66 -5 -72 -1 -22 -22 -15 -68 23 -34 28 -43 41 -38 57 2 12 2 16
-1 10 -9 -21 -27 -15 -21 7 5 19 -12 83 -26 96 -4 4 -7 18 -7 31 0 14 -4 32
-9 42 -6 10 -19 62 -30 117 -12 54 -32 149 -46 209 -44 192 -60 442 -35 560 6
28 13 65 16 83 4 18 11 35 15 38 5 3 9 14 9 25 0 10 5 19 11 19 6 0 9 7 5 15
-7 21 18 19 79 -4z m442 -33 c39 -77 73 -157 77 -185 2 -16 8 -48 11 -73 10
-61 56 -206 98 -311 50 -122 171 -360 201 -396 44 -53 124 -84 301 -118 318
-61 1014 -86 1140 -41 168 61 283 148 421 319 35 43 64 74 64 69 0 -6 -7 -18
-16 -26 -8 -9 -11 -16 -5 -16 13 0 70 60 77 83 3 9 9 17 14 17 4 0 10 8 13 18
9 25 65 124 74 131 5 3 23 36 41 74 18 37 37 67 43 67 5 0 9 8 9 18 0 10 13
39 29 64 16 25 27 49 24 52 -4 3 1 14 10 24 10 10 14 22 10 25 -3 4 -2 7 4 7
11 0 28 47 24 63 -1 5 4 7 11 5 7 -3 21 4 32 14 33 30 139 25 198 -10 65 -37
99 -87 213 -307 140 -272 158 -300 303 -485 107 -136 226 -208 395 -241 194
-36 721 -23 1032 27 88 14 183 32 212 40 59 17 121 59 153 104 27 38 38 33 14
-7 -17 -27 -16 -27 15 5 19 19 29 37 25 45 -4 6 -4 9 1 5 8 -8 68 65 85 104 6
13 19 37 30 53 11 17 23 37 26 45 4 8 22 51 41 95 42 97 133 369 136 407 1 16
5 28 8 28 7 0 65 171 61 183 -3 9 58 70 65 64 13 -14 53 -405 52 -516 -1 -122
-2 -127 -54 -280 -62 -184 -105 -300 -147 -396 -51 -115 -139 -287 -169 -332
-16 -23 -29 -51 -29 -63 0 -13 -9 -24 -25 -30 -13 -5 -49 -42 -79 -82 -29 -40
-113 -132 -185 -205 -153 -154 -213 -242 -271 -391 -46 -116 -234 -671 -244
-719 -6 -27 2 -39 111 -152 85 -87 116 -126 111 -136 -6 -10 0 -19 19 -29 20
-11 23 -15 11 -16 -29 0 -20 -20 10 -21 20 -1 22 -2 7 -6 -11 -3 -25 -9 -30
-14 -6 -4 -17 -4 -25 2 -13 8 -13 10 0 18 8 6 11 14 6 18 -4 4 -14 -1 -22 -11
-14 -19 -14 -19 -44 2 -16 12 -32 22 -34 22 -12 0 -155 96 -221 148 -94 75
-101 81 -229 202 -61 58 -133 121 -161 140 -45 30 -90 64 -259 194 -28 22 -88
57 -133 78 -96 45 -322 105 -440 117 l-84 9 -87 -49 c-127 -72 -173 -83 -308
-75 -101 5 -119 9 -182 41 -39 19 -92 48 -118 65 -32 20 -61 30 -86 30 -63 0
-192 -22 -215 -37 -12 -8 -27 -12 -33 -8 -6 4 -19 0 -29 -10 -12 -10 -28 -14
-42 -10 -66 15 -337 -117 -385 -187 -11 -16 -28 -28 -40 -28 -12 0 -44 -19
-70 -43 -27 -23 -75 -59 -107 -80 -32 -21 -63 -48 -68 -61 -6 -13 -24 -30 -39
-37 -35 -17 -188 -134 -321 -246 -14 -11 -18 -11 -30 4 -12 15 -12 16 3 10 10
-3 20 -2 23 2 2 5 -4 11 -15 14 -11 3 -20 1 -20 -4 0 -5 -5 -9 -11 -9 -7 0
-17 -7 -24 -17 -18 -25 -38 -7 -23 20 7 12 11 25 10 29 -1 4 5 5 13 2 8 -4 12
-11 8 -17 -3 -6 -1 -7 6 -3 6 4 9 12 5 17 -3 5 -1 16 5 23 7 8 14 27 16 42 3
16 10 54 16 84 6 30 9 75 6 100 -5 52 -34 169 -46 184 -4 6 -13 29 -19 51 -38
134 -77 250 -84 253 -4 2 -8 11 -8 20 0 10 -7 30 -15 46 -8 15 -15 34 -15 41
0 8 -6 20 -13 27 -7 7 -19 28 -25 46 -11 32 -68 113 -84 120 -5 2 -8 9 -8 15
0 7 -7 21 -16 32 -13 17 -16 18 -24 5 -7 -11 -10 -12 -10 -2 0 8 -61 76 -135
152 -103 105 -134 142 -129 156 4 13 3 15 -3 6 -7 -9 -18 -1 -44 29 -19 22
-43 55 -53 72 l-19 32 26 -28 c14 -16 28 -34 30 -40 2 -7 7 -10 10 -7 3 3 -18
44 -48 90 -30 47 -55 90 -55 96 0 7 -7 15 -16 18 -8 3 -13 10 -10 15 3 5 -1
14 -9 21 -8 7 -15 20 -15 29 0 10 -9 36 -20 58 -39 82 -102 292 -132 448 -18
88 -35 162 -39 165 -7 5 -22 85 -40 215 -13 91 -10 435 3 435 6 0 8 9 5 20 -3
11 -1 23 5 26 5 3 8 15 5 25 -9 33 7 20 30 -23z m6201 -43 c95 -39 121 -144
97 -407 -20 -214 -30 -279 -59 -379 -52 -177 -209 -489 -247 -489 -5 0 -8 10
-7 23 0 12 -2 243 -6 512 -5 345 -4 505 3 540 6 28 14 64 17 80 3 17 16 49 30
72 13 23 21 43 16 46 -4 2 -2 2 5 1 7 -2 15 1 18 6 9 15 90 12 133 -5z m-3335
-2985 c88 -49 184 -86 337 -130 242 -69 263 -77 470 -173 41 -19 91 -39 110
-45 20 -5 84 -45 142 -88 125 -92 131 -106 68 -165 -49 -46 -156 -98 -270
-130 -71 -20 -107 -24 -220 -23 l-135 0 -160 53 c-257 84 -309 94 -470 94
-131 -1 -149 -3 -270 -38 -352 -101 -432 -111 -591 -79 -77 16 -118 34 -79 34
19 1 19 1 2 11 -9 6 -15 14 -12 20 4 5 0 9 -8 9 -24 0 -42 60 -42 140 0 83 22
144 55 155 11 4 20 13 20 21 0 8 8 14 18 15 15 0 15 1 -2 8 -14 5 -16 10 -8
15 7 4 17 4 24 0 6 -4 8 -3 5 2 -13 22 189 96 423 156 238 60 295 80 385 133
68 41 91 53 108 54 5 1 49 -22 100 -49z m-1863 -127 c-1 -11 -80 -66 -80 -56
0 9 61 62 73 63 4 0 7 -3 7 -7z m3833 -114 c11 -7 30 -20 41 -31 20 -19 20
-19 1 -12 -11 5 -24 12 -30 16 -5 5 -19 15 -30 23 -24 17 -12 20 18 4z m82
-117 c-3 -3 -11 0 -18 7 -9 10 -8 11 6 5 10 -3 15 -9 12 -12z m-2865 -1922 c0
-5 -4 -10 -10 -10 -5 0 -10 5 -10 10 0 6 5 10 10 10 6 0 10 -4 10 -10z m3150
-134 c0 -3 -4 -8 -10 -11 -5 -3 -10 -1 -10 4 0 6 5 11 10 11 6 0 10 -2 10 -4z"/>
<path d="M4758 8493 c7 -3 16 -2 19 1 4 3 -2 6 -13 5 -11 0 -14 -3 -6 -6z"/>
<path d="M4758 8473 c7 -3 16 -2 19 1 4 3 -2 6 -13 5 -11 0 -14 -3 -6 -6z"/>
<path d="M4335 8430 c-3 -5 -2 -10 4 -10 5 0 13 5 16 10 3 6 2 10 -4 10 -5 0
-13 -4 -16 -10z"/>
<path d="M4328 8403 c7 -3 16 -2 19 1 4 3 -2 6 -13 5 -11 0 -14 -3 -6 -6z"/>
<path d="M3871 7534 c0 -11 3 -14 6 -6 3 7 2 16 -1 19 -3 4 -6 -2 -5 -13z"/>
<path d="M6350 5100 c0 -5 5 -10 11 -10 5 0 7 5 4 10 -3 6 -8 10 -11 10 -2 0
-4 -4 -4 -10z"/>
<path d="M6310 5045 c0 -2 10 -10 23 -16 20 -11 21 -11 8 4 -13 16 -31 23 -31
12z"/>
<path d="M4140 13066 c0 -2 8 -10 18 -17 15 -13 16 -12 3 4 -13 16 -21 21 -21
13z"/>
<path d="M7120 12920 c0 -5 5 -10 11 -10 5 0 7 5 4 10 -3 6 -8 10 -11 10 -2 0
-4 -4 -4 -10z"/>
<path d="M4460 12795 c7 -9 15 -13 17 -11 7 7 -7 26 -19 26 -6 0 -6 -6 2 -15z"/>
<path d="M4486 12772 c-7 -11 42 -54 54 -47 5 3 7 0 4 -8 -3 -8 2 -17 10 -20
19 -7 20 -3 6 24 -6 10 -18 19 -26 19 -8 0 -13 4 -10 8 2 4 -4 13 -14 20 -11
6 -21 8 -24 4z"/>
<path d="M2550 12452 c0 -5 18 -9 40 -9 22 0 40 4 40 9 0 4 -18 8 -40 8 -22 0
-40 -4 -40 -8z"/>
<path d="M1175 11730 c-3 -5 -1 -10 4 -10 6 0 11 5 11 10 0 6 -2 10 -4 10 -3
0 -8 -4 -11 -10z"/>
<path d="M1433 5376 c20 -20 37 -38 37 -40 0 -9 73 -76 78 -72 2 3 -9 18 -24
33 -16 16 -45 47 -65 68 -20 22 -42 41 -50 43 -8 2 3 -13 24 -32z"/>
<path d="M6693 2750 c-45 -51 -58 -76 -22 -44 31 28 82 94 72 94 -4 -1 -27
-23 -50 -50z"/>
<path d="M6625 2669 c-4 -6 -5 -12 -2 -15 2 -3 7 2 10 11 7 17 1 20 -8 4z"/>
<path d="M6584 2618 l-19 -23 23 19 c12 11 22 21 22 23 0 8 -8 2 -26 -19z"/>
<path d="M5805 2390 c-3 -5 -1 -10 4 -10 6 0 11 5 11 10 0 6 -2 10 -4 10 -3 0
-8 -4 -11 -10z"/>
</g>
</svg>
