<?xml version="1.0" encoding="utf-8"?>
<!-- Generator: Adobe Illustrator 17.0.0, SVG Export Plug-In . SVG Version: 6.00 Build 0)  -->
<!DOCTYPE svg PUBLIC "-//W3C//DTD SVG 1.1//EN" "http://www.w3.org/Graphics/SVG/1.1/DTD/svg11.dtd">
<svg version="1.1" id="Layer_1" xmlns="http://www.w3.org/2000/svg" xmlns:xlink="http://www.w3.org/1999/xlink" x="0px" y="0px"
	 width="512px" height="512px" viewBox="0 0 512 512" enable-background="new 0 0 512 512" xml:space="preserve">
<g>
	<path d="M499.155,467.026L362.62,330.491c5.878-4.587,13.057-7.087,20.629-7.087c8.977,0,17.417,3.502,23.76,9.845l89.388,89.388
		C508.462,434.703,509.495,453.855,499.155,467.026z"/>
	<path d="M181.521,149.382L44.986,12.868c5.878-4.597,13.119-7.118,20.63-7.118c8.977,0,17.417,3.502,23.77,9.855l89.388,89.377
		C190.88,117.089,191.789,136.211,181.521,149.382z"/>
	<path d="M493.483,473.038c-22.158,21.425-51.259,33.212-82.177,33.212c-31.611-0.031-61.31-12.345-83.644-34.668L40.42,184.349
		c-22.355-22.355-34.658-52.064-34.658-83.665c0-30.898,11.776-59.988,33.201-82.156l136.721,136.71
		c-2.304,1.797-4.814,3.285-7.52,4.442c-0.269,0.093-0.485,0.196-0.671,0.279c-3.223,1.395-6.157,3.399-8.719,5.95
		c-5.32,5.31-8.275,12.365-8.316,19.844c-0.041,7.489,2.841,14.524,8.12,19.803l148.156,148.156c5.237,5.237,12.231,8.12,19.7,8.12
		h0.103c7.489-0.031,14.535-2.975,19.855-8.295c1.725-1.715,3.192-3.605,4.37-5.62c0.021-0.041,0.052-0.093,0.072-0.134
		c1.26-2.138,2.211-4.411,2.841-6.777c0.899-1.642,1.942-3.192,3.099-4.669L493.483,473.038z"/>
</g>
</svg>
