<?xml version="1.0" encoding="utf-8"?>
<!-- Generator: Adobe Illustrator 17.0.0, SVG Export Plug-In . SVG Version: 6.00 Build 0)  -->
<!DOCTYPE svg PUBLIC "-//W3C//DTD SVG 1.1//EN" "http://www.w3.org/Graphics/SVG/1.1/DTD/svg11.dtd">
<svg version="1.1" id="Layer_1" xmlns="http://www.w3.org/2000/svg" xmlns:xlink="http://www.w3.org/1999/xlink" x="0px" y="0px"
	 width="512px" height="512px" viewBox="0 0 512 512" enable-background="new 0 0 512 512" xml:space="preserve">
<g>
	
		<line fill="none" stroke="#000000" stroke-width="6" stroke-linecap="round" stroke-linejoin="round" stroke-miterlimit="10" x1="252.316" y1="123.231" x2="259.684" y2="123.231"/>
	
		<line fill="none" stroke="#000000" stroke-width="6" stroke-linecap="round" stroke-linejoin="round" stroke-miterlimit="10" x1="240.018" y1="357.618" x2="271.982" y2="357.618"/>
	
		<rect x="102.135" y="136.522" fill="none" stroke="#000000" stroke-width="6" stroke-linecap="round" stroke-linejoin="round" stroke-miterlimit="10" width="307.729" height="207.804"/>
	<path fill="none" stroke="#000000" stroke-width="8" stroke-linecap="round" stroke-linejoin="round" stroke-miterlimit="10" d="
		M62.765,369.811V118.716c0-4.852,3.932-8.78,8.78-8.78H440.45c4.852,0,8.78,3.932,8.78,8.78v251.095"/>
	<g>
		
			<line fill="none" stroke="#000000" stroke-width="6" stroke-linecap="round" stroke-linejoin="round" stroke-miterlimit="10" x1="62.765" y1="386.818" x2="70.127" y2="386.818"/>
		
			<line fill="none" stroke="#000000" stroke-width="6" stroke-linecap="round" stroke-linejoin="round" stroke-miterlimit="10" x1="87.158" y1="386.818" x2="94.522" y2="386.818"/>
		
			<line fill="none" stroke="#000000" stroke-width="6" stroke-linecap="round" stroke-linejoin="round" stroke-miterlimit="10" x1="111.551" y1="386.818" x2="118.915" y2="386.818"/>
		<path fill="none" stroke="#000000" stroke-width="8" stroke-linecap="round" stroke-linejoin="round" stroke-miterlimit="10" d="
			M498.994,371.576c0,16.831-21.211,30.487-47.379,30.487H60.385c-26.168,0-47.379-13.656-47.379-30.487H498.994z"/>
	</g>
	
		<line fill="none" stroke="#000000" stroke-width="6" stroke-linecap="round" stroke-linejoin="round" stroke-miterlimit="10" x1="449.231" y1="300.494" x2="420.299" y2="300.494"/>
	
		<line fill="none" stroke="#000000" stroke-width="6" stroke-linecap="round" stroke-linejoin="round" stroke-miterlimit="10" x1="449.231" y1="288.492" x2="433.723" y2="288.492"/>
	
		<line fill="none" stroke="#000000" stroke-width="6" stroke-linecap="round" stroke-linejoin="round" stroke-miterlimit="10" x1="449.231" y1="312.497" x2="428.353" y2="312.497"/>
</g>
</svg>
