<?xml version="1.0" encoding="utf-8"?>
<!-- Generator: Adobe Illustrator 17.0.0, SVG Export Plug-In . SVG Version: 6.00 Build 0)  -->
<!DOCTYPE svg PUBLIC "-//W3C//DTD SVG 1.1//EN" "http://www.w3.org/Graphics/SVG/1.1/DTD/svg11.dtd">
<svg version="1.1" id="Calque_1" xmlns="http://www.w3.org/2000/svg" xmlns:xlink="http://www.w3.org/1999/xlink" x="0px" y="0px"
	 width="512px" height="512px" viewBox="0 0 512 512" enable-background="new 0 0 512 512" xml:space="preserve">
<g>
	<g>
		<path fill="none" stroke="#231F20" stroke-width="10" stroke-miterlimit="10" d="M256,43.024
			c-65.502,0-118.597,53.095-118.597,118.597c0,28.058,9.737,53.843,26.041,74.15c2.712,3.395,5.616,6.641,8.691,9.716
			l74.502,74.513c5.178,5.168,13.549,5.168,18.727,0l74.502-74.513c3.075-3.075,5.979-6.321,8.691-9.716
			c16.303-20.307,26.041-46.092,26.041-74.15C374.597,96.119,321.502,43.024,256,43.024z"/>
		<circle fill="none" stroke="#231F20" stroke-width="10" stroke-miterlimit="10" cx="256" cy="161.621" r="57.654"/>
	</g>
	
		<line fill="none" stroke="#231F20" stroke-width="10" stroke-linecap="round" stroke-linejoin="round" stroke-miterlimit="10" x1="313.58" y1="164.625" x2="198.42" y2="164.625"/>
	<path fill="none" stroke="#231F20" stroke-width="10" stroke-linecap="round" stroke-linejoin="round" stroke-miterlimit="10" d="
		M374.554,164.625h51.206c11.744,0,21.353,9.609,21.353,21.353v90.261v157.439v13.944c0,11.744-9.609,21.353-21.353,21.353H254.388
		H86.24c-11.744,0-21.353-9.609-21.353-21.353v-3.726v-90.795v-99.294v-67.829c0-11.744,9.609-21.353,21.353-21.353h51.206"/>
	<polyline fill="none" stroke="#231F20" stroke-width="10" stroke-miterlimit="10" points="299.401,285.966 368.394,354.96 
		447.114,433.679 	"/>
	
		<line fill="none" stroke="#231F20" stroke-width="10" stroke-miterlimit="10" x1="220.446" y1="207.012" x2="220.404" y2="206.98"/>
	
		<line fill="none" stroke="#231F20" stroke-width="10" stroke-miterlimit="10" x1="210.645" y1="197.221" x2="210.613" y2="197.179"/>
	
		<line fill="none" stroke="#231F20" stroke-width="10" stroke-miterlimit="10" x1="114.533" y1="303.455" x2="64.886" y2="253.808"/>
	
		<line fill="none" stroke="#231F20" stroke-width="10" stroke-miterlimit="10" x1="267.221" y1="456.143" x2="159.931" y2="348.852"/>
	<polyline fill="none" stroke="#231F20" stroke-width="10" stroke-miterlimit="10" points="254.388,468.976 267.221,456.143 
		368.394,354.96 447.114,276.24 	"/>
	<polyline fill="none" stroke="#231F20" stroke-width="10" stroke-miterlimit="10" points="217.713,291.081 159.931,348.852 
		64.886,443.897 	"/>
	<polyline fill="none" stroke="#231F20" stroke-width="10" stroke-miterlimit="10" points="172.316,245.672 114.533,303.455 
		64.886,353.102 	"/>
</g>
</svg>
