<?xml version="1.0" encoding="utf-8"?>
<!-- Generator: Adobe Illustrator 17.0.0, SVG Export Plug-In . SVG Version: 6.00 Build 0)  -->
<!DOCTYPE svg PUBLIC "-//W3C//DTD SVG 1.1//EN" "http://www.w3.org/Graphics/SVG/1.1/DTD/svg11.dtd">
<svg version="1.1" id="Layer_1" xmlns="http://www.w3.org/2000/svg" xmlns:xlink="http://www.w3.org/1999/xlink" x="0px" y="0px"
	 width="512px" height="512px" viewBox="0 0 512 512" enable-background="new 0 0 512 512" xml:space="preserve">
<g>
	<path d="M313.61,133.75H23.33c-8.35,0-15.15,6.79-15.15,15.14v214.35c0,8.35,6.8,15.14,15.15,15.14h290.28
		c8.35,0,15.14-6.79,15.14-15.14V148.89C328.75,140.54,321.96,133.75,313.61,133.75z"/>
	<path d="M488.02,102.31c-2.09,0-4.05,0.81-5.52,2.28c-1.47,1.48-2.29,3.44-2.29,5.52v291.78c0,4.3,3.51,7.8,7.81,7.8
		c2.08,0,4.04-0.81,5.51-2.28c1.47-1.48,2.29-3.44,2.29-5.52V110.11C495.82,105.81,492.32,102.31,488.02,102.31z"/>
	<path d="M366.14,186.48c-4.14,1.87-8.78,5.47-8.78,7.48v122.92c0,2.2,5.11,5.84,8.78,7.48c0.12,0.06,0.25,0.13,0.37,0.2
		l105.7,61.38V125.99L366.48,186.3C366.37,186.37,366.25,186.43,366.14,186.48z"/>
</g>
</svg>
