<?xml version="1.0" encoding="utf-8"?>
<!-- Generator: Adobe Illustrator 17.0.0, SVG Export Plug-In . SVG Version: 6.00 Build 0)  -->
<!DOCTYPE svg PUBLIC "-//W3C//DTD SVG 1.1//EN" "http://www.w3.org/Graphics/SVG/1.1/DTD/svg11.dtd">
<svg version="1.1" id="Layer_1" xmlns="http://www.w3.org/2000/svg" xmlns:xlink="http://www.w3.org/1999/xlink" x="0px" y="0px"
	 width="512px" height="512px" viewBox="0 0 512 512" enable-background="new 0 0 512 512" xml:space="preserve">
<g>
	<g>
		<path d="M155.72,469.76v26.26c0,2.21-1.79,4-4,4c-2.21,0-4-1.79-4-4v-26.26H155.72z"/>
	</g>
	<g>
		<path d="M456.02,112.13c-0.98-0.76-2.26-1.02-3.46-0.7l-146.33,38.48c-1.75,0.46-2.98,2.05-2.98,3.86v41.52v135.79
			c5.01,6.47,8,14.59,8,23.38V198.38L449.57,162v128.49c4.83,6.23,7.78,13.99,8,22.4V156.81v-41.52
			C457.57,114.05,457,112.88,456.02,112.13z M449.57,153.73L311.25,190.1v-33.24l138.32-36.38V153.73z"/>
		<path d="M449.57,313.88c0,0.04,0,0.09,0.01,0.13v-0.13c0-0.13,0-0.26-0.01-0.39V313.88z"/>
	</g>
	<g>
		<path d="M189.13,207.72c-1.34,0.51-2.69,1-4.05,1.46c-0.03,0-0.06,0.01-0.08,0.02c-1.38,0.46-2.77,0.89-4.16,1.29
			c-0.24,0.06-0.47,0.13-0.7,0.2c-1.34,0.37-2.69,0.72-4.04,1.04c-0.26,0.06-0.52,0.12-0.78,0.18c-0.71,0.17-1.42,0.32-2.13,0.47
			v35.13c0,1.65-1.34,3-3,3s-3-1.35-3-3v-34.07c-0.19,0.03-0.38,0.06-0.57,0.08c-0.16,0.03-0.33,0.05-0.5,0.08
			c-1.4,0.19-2.81,0.34-4.22,0.48c-0.27,0.02-0.54,0.05-0.81,0.07c-1.4,0.13-2.8,0.22-4.2,0.29c-0.24,0.01-0.49,0.02-0.73,0.03
			c-0.48,0.02-0.96,0.04-1.44,0.06v50.19c0,1.66-1.34,3-3,3c-1.66,0-3-1.34-3-3v-50.19l-1.44-0.06c-0.24-0.01-0.48-0.02-0.71-0.03
			c-1.42-0.07-2.82-0.16-4.23-0.29c-0.26-0.02-0.52-0.04-0.79-0.07c-1.42-0.13-2.84-0.29-4.24-0.48c-0.16-0.03-0.31-0.05-0.47-0.07
			c-0.2-0.03-0.39-0.06-0.59-0.09v24.2c0,1.66-1.34,3-3,3s-3-1.34-3-3v-25.26c-0.72-0.15-1.43-0.3-2.14-0.47
			c-0.25-0.06-0.51-0.11-0.76-0.17c-1.36-0.33-2.72-0.67-4.06-1.05c-0.22-0.06-0.44-0.13-0.66-0.19c-2.82-0.81-5.6-1.75-8.36-2.8
			c-0.12-0.05-0.25-0.09-0.38-0.13l10.52,253.41v0.17c0,0.34,0.27,0.61,0.62,0.61h53.4c0.34,0,0.62-0.27,0.62-0.61v-0.17
			l10.51-253.42C189.42,207.62,189.28,207.66,189.13,207.72z M162.42,366.61c0,1.38-1.12,2.5-2.5,2.5h-16.38
			c-1.39,0-2.5-1.12-2.5-2.5v-66.03c0-1.38,1.11-2.5,2.5-2.5h16.38c1.38,0,2.5,1.12,2.5,2.5V366.61z"/>
		<path d="M247.26,90.8H56.18c8.73-45.25,49.01-78.82,95.55-78.82C198.26,11.98,238.53,45.55,247.26,90.8z"/>
		<path d="M249.01,109.28c0,3.49-0.18,7-0.56,10.47H54.99c-0.38-3.48-0.56-6.98-0.56-10.47c0-3.49,0.18-7,0.56-10.48h193.46
			C248.83,102.28,249.01,105.79,249.01,109.28z"/>
		<path d="M247.26,127.75c-5.91,30.86-26.24,56.83-55.1,70.04c-12.74,5.83-26.34,8.78-40.43,8.78c-14.13,0-27.73-2.95-40.43-8.78
			h-0.01c-28.87-13.21-49.2-39.17-55.11-70.04H247.26z"/>
		<path d="M449.58,314.01c-0.07,16.62-13.61,30.12-30.25,30.12c-16.68,0-30.25-13.57-30.25-30.25s13.57-30.25,30.25-30.25
			c16.55,0,30.04,13.36,30.24,29.86v0.39C449.57,313.92,449.57,313.97,449.58,314.01z"/>
		<path d="M303.25,354.46c0,16.68-13.57,30.25-30.25,30.25s-30.25-13.57-30.25-30.25s13.57-30.25,30.25-30.25
			S303.25,337.78,303.25,354.46z"/>
		<rect x="146.04" y="303.08" width="11.38" height="61.03"/>
	</g>
</g>
</svg>
